<svg xmlns="http://www.w3.org/2000/svg" width="64" height="96" viewBox="0 0 338.21 520.85"><defs><style>.cls-1{fill:#c59940;}.cls-2{fill:#c49940;}</style></defs><title>ARROZ</title><g id="Camada_2" data-name="Camada 2"><g id="Camada_1-2" data-name="Camada 1"><path class="cls-1" d="M0,395.21c7.77-5.89,15.45-11.38,22.68-17.4a11.23,11.23,0,0,0,3.82-7.47q.29-127.66.24-255.31a8.22,8.22,0,0,0-3.95-7.57C15.39,102.24,8.23,96.7.18,90.69c2.17-.21,3.53-.45,4.89-.46,25.83,0,51.66,0,77.49-.15,3.73,0,5.86,1.1,7.91,4.22q26.64,40.64,53.6,81.06c.92,1.38,1.92,2.72,3.77,5.34V148.92c0-11.39.18-22.78-.15-34.16a9.79,9.79,0,0,0-3.3-6.54c-6.89-5.54-14.16-10.6-22.3-16.59h92.64c-7.49,5.43-13.9,10.46-20.72,14.87-4.39,2.84-5.78,6.19-5.71,11.35.3,20.62.12,41.24.12,63.76,2.08-2.94,3.26-4.51,4.33-6.14,17.88-27,35.7-54.06,53.74-81,1.34-2,4.29-4.14,6.51-4.16,27.76-.28,55.52-.18,85.21-.18-6.38,4.86-11.06,9.32-16.53,12.4-8.76,5-10.92,11.75-10.87,21.63.43,81.43.28,162.87.15,244.31,0,4.51,1.21,7.4,5,10,7.39,5.18,14.39,10.93,21.94,16.75l-52.49,39.49q-55.69,41.88-111.32,83.84c-3.85,2.92-6.26,3-10.21,0q-79.34-60-159-119.61C3.35,397.88,1.87,396.68,0,395.21Zm214.58.23H121.83c7.84-6.23,14.82-12,22.09-17.41,3-2.2,4-4.53,4-8.2-.13-40.9,0-81.8-.19-122.7a16.5,16.5,0,0,0-2.52-8.54q-36.82-56.07-74-111.92c-.74-1.11-1.72-2.07-2.82-3.39a8.9,8.9,0,0,0-.34,1.23q-.39,133.7-.64,267.38a8.24,8.24,0,0,0,3,5.58q14.34,11.22,29.12,21.87a8,8,0,0,0,5.64.88c14.11-2.81,28.05-7.19,42.29-8.53,28.16-2.65,56.19-1.38,83,9.4a8.06,8.06,0,0,0,6.53-1c9.73-6.94,19.09-14.38,28.82-21.3,3.56-2.54,4.69-5.3,4.68-9.6q-.18-131.39-.09-262.77v-6.24c-1.48,1.78-2.23,2.54-2.82,3.42q-38.79,58.58-77.49,117.21a12.42,12.42,0,0,0-1.68,6.44c-.09,40.9,0,81.8-.17,122.7,0,3.78,1.36,6,4.18,8.13C199.68,383.49,206.67,389.18,214.58,395.44Z"/><path class="cls-2" d="M335.8,75H.94c2.53-1.36,4-2.27,5.57-3Q84.38,36.86,162.24,1.72C165.86.08,169-.82,173.09,1Q253,37.35,333,73.32C333.51,73.55,334,73.9,335.8,75Z"/></g></g></svg>